<mxfile host="app.diagrams.net" modified="2022-05-24T16:37:47.932Z" agent="5.0 (Macintosh; Intel Mac OS X 10_15_7) AppleWebKit/537.36 (KHTML, like Gecko) Chrome/101.0.4951.64 Safari/537.36" etag="NYElkA8PLU3ZCQNbB9iF" version="18.1.1" type="github" pages="2">
  <diagram id="WLTdoUCkIdi1xevVH06I" name="BridgeMonopolyGame">
    <mxGraphModel dx="1010" dy="1251" grid="1" gridSize="10" guides="1" tooltips="1" connect="1" arrows="1" fold="1" page="1" pageScale="1" pageWidth="850" pageHeight="1100" math="0" shadow="0">
      <root>
        <mxCell id="0" />
        <mxCell id="1" parent="0" />
        <mxCell id="pQvjBnQ6-1oKnFR016Xf-2" value="BridgeMonopolyGame" style="swimlane;startSize=0;verticalAlign=top;" parent="1" vertex="1">
          <mxGeometry x="155" y="190" width="690" height="640" as="geometry" />
        </mxCell>
        <mxCell id="Y3TsL9U6GZ3JC2LR3ddT-1" value="Select number of Players" style="ellipse;whiteSpace=wrap;html=1;" vertex="1" parent="pQvjBnQ6-1oKnFR016Xf-2">
          <mxGeometry x="80" y="45" width="110" height="50" as="geometry" />
        </mxCell>
        <mxCell id="lde2wLMu5fv70pZ8jzg2-2" value="Load Map" style="ellipse;whiteSpace=wrap;html=1;" vertex="1" parent="pQvjBnQ6-1oKnFR016Xf-2">
          <mxGeometry x="100" y="550" width="110" height="50" as="geometry" />
        </mxCell>
        <mxCell id="lde2wLMu5fv70pZ8jzg2-19" value="TurnBasedPlay" style="swimlane;startSize=0;verticalAlign=top;" vertex="1" parent="pQvjBnQ6-1oKnFR016Xf-2">
          <mxGeometry x="100" y="120" width="410" height="400" as="geometry" />
        </mxCell>
        <mxCell id="lde2wLMu5fv70pZ8jzg2-23" value="Move" style="ellipse;whiteSpace=wrap;html=1;" vertex="1" parent="lde2wLMu5fv70pZ8jzg2-19">
          <mxGeometry x="60" y="255" width="110" height="50" as="geometry" />
        </mxCell>
        <mxCell id="lde2wLMu5fv70pZ8jzg2-24" value="Stay" style="ellipse;whiteSpace=wrap;html=1;" vertex="1" parent="lde2wLMu5fv70pZ8jzg2-19">
          <mxGeometry x="60" y="80" width="110" height="50" as="geometry" />
        </mxCell>
        <mxCell id="lde2wLMu5fv70pZ8jzg2-26" value="Return Card" style="ellipse;whiteSpace=wrap;html=1;" vertex="1" parent="lde2wLMu5fv70pZ8jzg2-19">
          <mxGeometry x="270" y="80" width="110" height="50" as="geometry" />
        </mxCell>
        <mxCell id="lde2wLMu5fv70pZ8jzg2-39" value="&amp;lt;&amp;lt;include&amp;gt;&amp;gt;" style="html=1;verticalAlign=bottom;labelBackgroundColor=none;endArrow=open;endFill=0;dashed=1;rounded=0;" edge="1" parent="lde2wLMu5fv70pZ8jzg2-19" source="lde2wLMu5fv70pZ8jzg2-24" target="lde2wLMu5fv70pZ8jzg2-26">
          <mxGeometry width="160" relative="1" as="geometry">
            <mxPoint x="90" y="210" as="sourcePoint" />
            <mxPoint x="250" y="210" as="targetPoint" />
          </mxGeometry>
        </mxCell>
        <mxCell id="lde2wLMu5fv70pZ8jzg2-40" value="Roll Dice" style="ellipse;whiteSpace=wrap;html=1;" vertex="1" parent="lde2wLMu5fv70pZ8jzg2-19">
          <mxGeometry x="270" y="220" width="110" height="50" as="geometry" />
        </mxCell>
        <mxCell id="lde2wLMu5fv70pZ8jzg2-41" value="&amp;lt;&amp;lt;include&amp;gt;&amp;gt;" style="html=1;verticalAlign=bottom;labelBackgroundColor=none;endArrow=open;endFill=0;dashed=1;rounded=0;" edge="1" parent="lde2wLMu5fv70pZ8jzg2-19" source="lde2wLMu5fv70pZ8jzg2-23" target="lde2wLMu5fv70pZ8jzg2-40">
          <mxGeometry width="160" relative="1" as="geometry">
            <mxPoint x="180.00000000000205" y="115" as="sourcePoint" />
            <mxPoint x="280.0000000000007" y="115" as="targetPoint" />
          </mxGeometry>
        </mxCell>
        <mxCell id="lde2wLMu5fv70pZ8jzg2-42" value="Combine Direction" style="ellipse;whiteSpace=wrap;html=1;" vertex="1" parent="lde2wLMu5fv70pZ8jzg2-19">
          <mxGeometry x="270" y="310" width="110" height="50" as="geometry" />
        </mxCell>
        <mxCell id="lde2wLMu5fv70pZ8jzg2-43" value="&amp;lt;&amp;lt;include&amp;gt;&amp;gt;" style="html=1;verticalAlign=bottom;labelBackgroundColor=none;endArrow=open;endFill=0;dashed=1;rounded=0;" edge="1" parent="lde2wLMu5fv70pZ8jzg2-19" source="lde2wLMu5fv70pZ8jzg2-23" target="lde2wLMu5fv70pZ8jzg2-42">
          <mxGeometry x="-0.0324" y="7" width="160" relative="1" as="geometry">
            <mxPoint x="162.76087517483506" y="222.39750376878692" as="sourcePoint" />
            <mxPoint x="277.25242756188663" y="252.5919137414112" as="targetPoint" />
            <mxPoint as="offset" />
          </mxGeometry>
        </mxCell>
        <mxCell id="lde2wLMu5fv70pZ8jzg2-35" style="edgeStyle=orthogonalEdgeStyle;rounded=0;orthogonalLoop=1;jettySize=auto;html=1;endArrow=none;endFill=0;" edge="1" parent="pQvjBnQ6-1oKnFR016Xf-2" source="pQvjBnQ6-1oKnFR016Xf-1" target="lde2wLMu5fv70pZ8jzg2-23">
          <mxGeometry relative="1" as="geometry" />
        </mxCell>
        <mxCell id="lde2wLMu5fv70pZ8jzg2-36" style="edgeStyle=orthogonalEdgeStyle;rounded=0;orthogonalLoop=1;jettySize=auto;html=1;entryX=0;entryY=0.5;entryDx=0;entryDy=0;endArrow=none;endFill=0;" edge="1" parent="pQvjBnQ6-1oKnFR016Xf-2" source="pQvjBnQ6-1oKnFR016Xf-1" target="lde2wLMu5fv70pZ8jzg2-24">
          <mxGeometry relative="1" as="geometry">
            <Array as="points">
              <mxPoint x="50" y="225" />
            </Array>
          </mxGeometry>
        </mxCell>
        <mxCell id="pQvjBnQ6-1oKnFR016Xf-1" value="User" style="shape=umlActor;verticalLabelPosition=bottom;verticalAlign=top;html=1;outlineConnect=0;" parent="pQvjBnQ6-1oKnFR016Xf-2" vertex="1">
          <mxGeometry x="30" y="300" width="30" height="60" as="geometry" />
        </mxCell>
        <mxCell id="lde2wLMu5fv70pZ8jzg2-44" value="&amp;lt;&amp;lt;actor&amp;gt;&amp;gt;&lt;br&gt;&lt;br&gt;&lt;b&gt;TurnManager&lt;/b&gt;" style="text;html=1;align=center;verticalAlign=middle;dashed=0;fillColor=#ffffff;strokeColor=#000000;" vertex="1" parent="pQvjBnQ6-1oKnFR016Xf-2">
          <mxGeometry x="540" y="260" width="120" height="70" as="geometry" />
        </mxCell>
        <mxCell id="lde2wLMu5fv70pZ8jzg2-49" style="edgeStyle=orthogonalEdgeStyle;rounded=0;orthogonalLoop=1;jettySize=auto;html=1;endArrow=none;endFill=0;" edge="1" parent="pQvjBnQ6-1oKnFR016Xf-2" source="lde2wLMu5fv70pZ8jzg2-24" target="lde2wLMu5fv70pZ8jzg2-44">
          <mxGeometry relative="1" as="geometry">
            <Array as="points">
              <mxPoint x="240" y="295" />
            </Array>
          </mxGeometry>
        </mxCell>
        <mxCell id="lde2wLMu5fv70pZ8jzg2-50" style="edgeStyle=orthogonalEdgeStyle;rounded=0;orthogonalLoop=1;jettySize=auto;html=1;endArrow=none;endFill=0;" edge="1" parent="pQvjBnQ6-1oKnFR016Xf-2" source="lde2wLMu5fv70pZ8jzg2-23" target="lde2wLMu5fv70pZ8jzg2-44">
          <mxGeometry relative="1" as="geometry">
            <Array as="points">
              <mxPoint x="240" y="295" />
            </Array>
          </mxGeometry>
        </mxCell>
        <mxCell id="lde2wLMu5fv70pZ8jzg2-3" style="edgeStyle=orthogonalEdgeStyle;rounded=0;orthogonalLoop=1;jettySize=auto;html=1;endArrow=none;endFill=0;" edge="1" parent="1" source="lde2wLMu5fv70pZ8jzg2-1" target="lde2wLMu5fv70pZ8jzg2-2">
          <mxGeometry relative="1" as="geometry">
            <Array as="points">
              <mxPoint x="275" y="770" />
              <mxPoint x="275" y="770" />
            </Array>
          </mxGeometry>
        </mxCell>
        <mxCell id="lde2wLMu5fv70pZ8jzg2-1" value="&amp;lt;&amp;lt;actor&amp;gt;&amp;gt;&lt;br&gt;&lt;br&gt;&lt;b&gt;Map Data&lt;/b&gt;" style="text;html=1;align=center;verticalAlign=middle;dashed=0;fillColor=#ffffff;strokeColor=#000000;" vertex="1" parent="1">
          <mxGeometry x="5" y="740" width="110" height="60" as="geometry" />
        </mxCell>
        <mxCell id="lde2wLMu5fv70pZ8jzg2-5" style="edgeStyle=orthogonalEdgeStyle;rounded=0;orthogonalLoop=1;jettySize=auto;html=1;entryX=0;entryY=0.5;entryDx=0;entryDy=0;endArrow=none;endFill=0;" edge="1" parent="1" source="lde2wLMu5fv70pZ8jzg2-4" target="Y3TsL9U6GZ3JC2LR3ddT-1">
          <mxGeometry relative="1" as="geometry">
            <mxPoint x="105" y="260" as="sourcePoint" />
            <Array as="points" />
          </mxGeometry>
        </mxCell>
        <mxCell id="lde2wLMu5fv70pZ8jzg2-4" value="Option&lt;br&gt;Selector" style="shape=umlActor;verticalLabelPosition=bottom;verticalAlign=top;html=1;outlineConnect=0;" vertex="1" parent="1">
          <mxGeometry x="35" y="230" width="30" height="60" as="geometry" />
        </mxCell>
      </root>
    </mxGraphModel>
  </diagram>
  <diagram id="RYy4CQak6TZI592JKkqK" name="MapDecoder">
    <mxGraphModel dx="1010" dy="1251" grid="1" gridSize="10" guides="1" tooltips="1" connect="1" arrows="1" fold="1" page="1" pageScale="1" pageWidth="827" pageHeight="1169" math="0" shadow="0">
      <root>
        <mxCell id="0" />
        <mxCell id="1" parent="0" />
        <mxCell id="4xjrsCaEGAsiob0l_N9V-1" value="User" style="shape=umlActor;verticalLabelPosition=bottom;verticalAlign=top;html=1;outlineConnect=0;" vertex="1" parent="1">
          <mxGeometry x="130" y="110" width="30" height="60" as="geometry" />
        </mxCell>
        <mxCell id="4xjrsCaEGAsiob0l_N9V-2" value="MapDecoder" style="swimlane;startSize=0;verticalAlign=top;" vertex="1" parent="1">
          <mxGeometry x="190" y="50" width="280" height="500" as="geometry" />
        </mxCell>
        <mxCell id="4xjrsCaEGAsiob0l_N9V-3" value="Use Case" style="ellipse;whiteSpace=wrap;html=1;" vertex="1" parent="4xjrsCaEGAsiob0l_N9V-2">
          <mxGeometry x="60" y="60" width="110" height="50" as="geometry" />
        </mxCell>
        <mxCell id="4xjrsCaEGAsiob0l_N9V-4" value="MapFile" style="shape=umlActor;verticalLabelPosition=bottom;verticalAlign=top;html=1;outlineConnect=0;" vertex="1" parent="1">
          <mxGeometry x="520" y="320" width="30" height="60" as="geometry" />
        </mxCell>
      </root>
    </mxGraphModel>
  </diagram>
</mxfile>
